# xmcd CD database file
#
# Track frame offsets:
#	150
#	13239
#	29437
#	42223
#	53548
#	63959
#	80266
#	83540
#	104301
#	117337
#	120167
#	120730
#
# Disc length: 1767 seconds
#
# Revision: 1
# Processed by: cddbd v1.5.2PL0 Copyright (c) Steve Scherf et al.
# Submitted via: CDex 1.70beta2
#
DISCID=8906e50c
DTITLE=Jimi Hendrix (w. Lonnie Youngblood) - That Unforgettable (Napoleon) mono vinyl
DYEAR=1971
DGENRE=Rock
TTITLE0=Wipe The Sweat 1 (2)
TTITLE1=Wipe The Sweat 2 (2) Segway II
TTITLE2=Wipe The Sweat 3 (1) Segway III
TTITLE3=Goodbye Bessie Mae (3) Two In One Goes
TTITLE4=Two In One Goes (2) Bassie Mae
TTITLE5=Soul Food (5) All I Want
TTITLE6=Under The Table Take 1 (6)
TTITLE7=Under The Table Take 1 (7) Table II
TTITLE8=Under The Table Take 2 (4) Table III
TTITLE9=Win Your Love (6) Psycho
TTITLE10=Win Your Love (7) Psycho
TTITLE11=Win Your Love (8)
EXTD=YEAR: 1971
EXTT0=
EXTT1=
EXTT2=
EXTT3=
EXTT4=
EXTT5=
EXTT6=
EXTT7=
EXTT8=
EXTT9=
EXTT10=
EXTT11=
PLAYORDER=
